# xmcd CD database file
#
# Track frame offsets:
#	150
#	28365
#	32207
#	58720
#	84445
#	121092
#	135280
#	154860
#	191950
#	214432
#	238367
#	265617
#
# Disc length: 3907 seconds
#
# Revision: 3
# Processed by: cddbd v1.5.2PL0 Copyright (c) Steve Scherf et al.
# Submitted via: CDex 1.51
#
DISCID=ae0f410c
DTITLE=Theatre Brook - I am the space, you are the sun
DYEAR=2000
DGENRE=Rock
TTITLE0=太陽の落とし子
TTITLE1=Captain Baobab
TTITLE2=心臓の目覚める時
TTITLE3=ただの道
TTITLE4=PUT YOUR HANDS IN THE AIR
TTITLE5=1st MAN WALKING
TTITLE6=五反田ディレイセンター
TTITLE7=1cmずつ
TTITLE8=先生どうしてキスの仕方まで教えてくれなかったんだ
TTITLE9=ギリギリまでもう一回
TTITLE10=Yes I am, Who I am
TTITLE11=最後の1%
EXTD=YEAR: 2000
EXTT0=
EXTT1=
EXTT2=
EXTT3=
EXTT4=
EXTT5=
EXTT6=
EXTT7=
EXTT8=
EXTT9=
EXTT10=
EXTT11=
PLAYORDER=
